<?xml version="1.0" encoding="UTF-8"?>
<svg id="a" data-name="Layer 1" xmlns="http://www.w3.org/2000/svg" viewBox="0 0 32 32">
  <circle cx="16" cy="16" r="16" fill="#fff"/>
  <g>
    <path d="m17.6503,11.1819c.05077-.35221.06989-.70005.01261-1.03088-.08699-.50228-.51731-.95569-.96077-1.13096-.17436-.06891-.3577-.11692-.53817-.16502-.11863-.03163-.2389-.05728-.35613-.0936-.21682-.06713-.43784-.11392-.66131-.14526-.12186-.01709-.24675-.00715-.35845.05666-.19933.11383-.34571.28238-.45073.49046-.01341.02656-.02465.0574-.02611.08681-.00579.11669-.01001.23358-.0091.35035.00038.04918.01494.09821.02305.14732.01013.05479.01656.11067.03132.16421.03678.13277.13492.24414.17585.37359.0853.26987.03529.65586.02584.93901l-.0293.87789c-.03081.86961-.0491,1.73967-.05018,2.60983-.00259,2.07225.17212,4.1291.32154,6.19339.01477.20407.03226.40804.04201.61233.00612.12807.01413.25459.04334.3804.0196.0844.02504.17214.03423.25866.0222.20889.05495.41453.13163.61313.05335.13812.08939.28269.14288.45582.09476.10012.24712.15949.38517.20254.14896-.02062.27551-.03814.39615-.05485.07015-.09356.02223-.21649.09158-.30561.081.02502.09625.08103.09223.14616-.00309.05025-.0206.10073.00943.15563.0158.0039.03477.00862.05927.01467.02837-.03783.05555-.07409.077-.10269.0159-.11115.03026-.21155.04192-.29303.0686-.0695.12061.00506.17397-.00997.06314-.06562.00514-.16746.07691-.22665q.10875.0328.21296-.02181c.02942-.13996.06088-.28967.09313-.44312.03834-.02895.07945-.06001.11138-.08413.03596-.05729.04177-.31398.04382-.36929.00847-.22851.11206-.0735.2138-.049,0,0,.16918-.10055.16836-.14456-.02053-1.08979-.07428-2.17771-.11391-3.26571-.04342-1.19217-.06985-2.38447-.01697-3.57948.0535-1.20911.16713-2.41543.33978-3.61323Zm-2.74751,2.43912c-.02728-.30997-.0224-.61768.02364-.93892.04024.26964.03565.57358-.02364.93892Zm2.08195,7.85181c-.01317-.02955-.0281-.05005-.03125-.07213-.03015-.21154-.08168-.4208-.07363-.63656-.00274-.00827-.00549-.01652-.00823-.02479-.00614-.1002-.01383-.20034-.01781-.30062-.0022-.05537.00183-.11098.00304-.16648q-.03384-.10279.0109-.18751c.04079.06593.02645.1288.0211.19033.05077.20125.09952.40025.07312.61322-.01399.11291.00499.23252.04356.34517.03279.09577.02762.13897-.02079.23938Zm.0034-6.67283c.06306.10888.03329.19002-.05087.3126-.031-.12603-.06005-.20893.05087-.3126Zm-.00802-.10711c-.06483-.04876-.0505-.1051-.02912-.16525q.10217.08763.02912.16525Zm.15559-.98379c-.08776-.0897-.11407-.15765-.03077-.23606.04221.068.0719.13444.03077.23606Z" fill="#8c4673"/>
    <path d="m12.54796,10.11992c-.08699-.50228-.51731-.95569-.96076-1.13096-.17436-.06891-.35771-.11692-.53817-.16502-.11863-.03163-.2389-.05728-.35613-.0936-.21682-.06714-.43784-.11392-.66131-.14526-.12187-.01709-.24675-.00715-.35845.05666-.19934.11383-.34571.28237-.45074.49046-.01341.02656-.02464.0574-.02611.08681-.00579.11669-.01.23358-.00909.35035.00038.04919.01494.09822.02305.14733.01013.05479.01655.11067.03132.16421.03678.13277.13492.24414.17585.37359.0853.26987.03529.65586.02584.939l-.02929.8779c-.03081.86996-.04911,1.74036-.05018,2.61087-.00162,1.30866.06108,2.64271.1205,3.96052.06067,1.34542.07217,2.69779.30135,4.02856.03921.22771.10886.44208.21648.63501.09582.10543.21847.10096.33697.12222.02039-.04836.03763-.08926.04677-.11095.12164-.1024.23627-.0159.33931-.02257.06311-.06369.04614-.14076.06627-.21604.06984-.0222.13103-.064.17227-.14576.00045-.02579.0006-.06109.00184-.09638.00089-.0253.00172-.05154.0409-.05621.05416.05561.09393.15233.20594.0966.04045-.07698.07103-.15521.06044-.24606-.0062-.05325-.00189-.05378.03772-.1328.04365.05234.03883.11441.04065.17413.0021.06892.01472.13159.08926.17306.0266-.00088.0606-.00198.08777-.00288.04717-.05329.04833-.10889.05049-.16509.00232-.06067.00752-.12126.01305-.18173.00068-.00742.01112-.01395.01787-.02183.03843.00293.07758.00594.11066.00849.10351-.09985.00763-.21044.03538-.31985.09453-.06947.0427-.19301.08481-.28837.04576-.00894.08892-.01739.13529-.02647.00853-.04107.0156-.07514.02267-.10918-.01063-.08042-.02127-.16082-.0319-.24123-.00659-.02924-.0166-.05818-.01922-.08778-.01689-.19072-.03286-.38155-.04741-.57249-.00279-.03666.00206-.07391.01468-.11113.07843.20025.05902.41301.08906.61873.01168.13003.00287.26169.03118.3904.0485.07079.10598.11845.20726.08102.00094-.05363.00457-.10341.00219-.15292-.01167-.24293-.02509-.48576-.03742-.72866-.00128-.02526.00052-.05069.00085-.07603.00139-.10604.01019-.21281.00237-.31791-.14219-1.91186.04211-7.11471.20991-8.51549.03496-.29191.07345-.5834.11539-.87438.05076-.35221.06989-.70005.0126-1.03088Zm-2.58139,5.70264c-.00305.09608-.00828.19212-.00973.28822-.00242.16171-.00229.32347-.00391.4852-.00047.04771-.00325.09539-.00525.15104-.01925-.0039-.02608-.00528-.03215-.00651-.03201-.10512-.03595-.55808-.00855-.96531.0049-.00418.0121-.01031.02377-.02024-.00046-.00849-.00123-.02238-.00208-.0379.0101-.00191.01946-.00368.02735-.00516.00511.00556.01095.00896.011.01244.00045.03273.00061.0655-.00044.09822Zm.25046-.37313c-.05134-.12921-.05457-.33452-.01497-.54365.01479.16932.02752.30317.03721.43724.00169.02336-.00943.04765-.02224.10641Zm.95163,3.35509c-.0444-.09992-.03039-.19991-.01445-.30212.01644.0046.03182.00561.03265.00963.02024.09804.01862.19563-.0182.29249Zm.10715-1.5693c-.02694-.08878-.04996-.17773-.03919-.2705.00184-.01591.02201-.02969.03971-.05203.05414.11509.02056.21847-.00053.32253Zm.51599,2.79314c-.02161.00981-.03869.01754-.06362.02886-.01039-.03938-.02623-.07237-.02674-.10558-.00453-.28963-.0596-.57714-.04459-.88714.04144.02506.06834.04132.08916.05392.05197.20188.07556.66458.04579.90995Z" fill="#8c4673"/>
    <path d="m22.77785,10.11366c-.08699-.50226-.51731-.95568-.96077-1.13095-.17436-.06893-.3577-.11692-.53816-.16504-.11863-.03162-.2389-.05728-.35614-.0936-.21681-.06713-.43784-.1139-.6613-.14523-.12187-.0171-.24676-.00716-.35845.05663-.19934.11386-.34572.2824-.45074.49046-.01341.02656-.02465.0574-.02611.08684-.00579.11666-.01.23358-.00909.35035.00037.04917.01494.09822.02305.14732.01013.05479.01655.11067.03132.16422.03677.13276.13492.24414.17584.37356.0853.26989.0353.65588.02584.93901,0,.00002-.02929.87789-.02929.87789-.03082.86996-.04912,1.74039-.05019,2.6109-.00171,1.38161.0374,2.76424.14272,4.14227,0,0,.23235,2.22282.46903,3.21066.07222.30138.1876,1.09327.43036,1.29223.12431.1019.2557.12435.40934.09621.07143-.06628.15166-.14074.23466-.21776.06383-.00555.1195-.03126.14782-.10009.0062-.05566.01235-.11094.01873-.16817.03903-.01668.07448-.03181.1101-.04701.01824-.04911.03539-.09532.05153-.13877.08932-.00318.17299-.00092.24618-.07501.01461-.05468.03139-.11745.04189-.15674.06551-.0534.11437-.09321.15988-.13031.01345-.1217.02573-.23278.0378-.34203.02206-.03597.043-.07013.06435-.10498l.00296-.1699c.026-.08584.04287-.14399.06138-.2016.01075-.03348.02409-.06607.03626-.09906-.00509-.09068-.01076-.18132-.01505-.27205-.0033-.06973-.00488-.13954.01553-.2147.00981.02342.02516.04606.02827.07043.00637.04997.00549.10091.00884.15134.00601.09055.01294.18106.01949.27156.01827.03983.03654.07962.05148.11217.1144.02237.18324-.02547.24036-.1056.00162-.09322.00604-.18476.00427-.27615-.0136-.72405-.16608-2.71893-.16608-2.71893-.13299-2.44475-.0361-4.8726.31948-7.33944.05077-.35222.0699-.70004.01261-1.0309Zm-2.72777,3.38432q-.03773-.11164-.02116-.21817c-.0001-.00012-.00022-.00027-.00032-.00038.00007-.00021.00009-.00042.00016-.00063-.04189-.04752-.0514-.10755-.06267-.16798-.03101-.16626-.01709-.3324-.00191-.49978.02059.08201.05539.15866.05286.2467-.00159.05526.008.11249.02194.1662.02266.08723.01722.17095-.01021.25487.00011.00012.00015.00025.00026.00037-.00004.00024-.00006.0004-.0001.00064.01555.01889.03109.03774.0499.06058-.00913.05007-.01807.09911-.02874.1576Zm1.06456,1.41649c.05187.16.06283.36012.03172.4472-.05433-.10102-.06906-.26521-.03172-.4472Zm.08733,1.20968c-.06382-.18502-.08314-.46502-.05118-.62018.05391.08842.06541.21673.05118.62018Zm.89476-2.93306c.00012-.01927.00021-.03853.0003-.0578.0427-.0885.02592-.18394.03027-.27691.0063-.05531.01196-.1107.01974-.16578.00095-.00676.01327-.01182.02755-.02365.02731.05882.01592.11917.01648.17676.00063.06606-.00489.13216-.00668.19828-.00165.06104-.00188.12212-.00274.18318-.02596.09998-.01457.20174-.01684.30323-.00364.1629-.01738.32557-.02693.48834-.00268.0458-.00394.09179-.00924.13728-.00208.01787-.01343.03457-.02391.0599-.03309-.10153-.03487-.51492-.00801-1.02283Zm-.02068,1.26226c.03653-.00199.03701.02418.03593.0411-.00542.08435-.01406.16847-.02156.25267-.02312-.09867-.02265-.19624-.01437-.29377Zm-.00222.55674c.00668.03604.03319.80824.02748.85643-.00154.01306-.01181.02502-.03009.06143-.03484-.17071-.0302-.6743.00261-.91786Zm-.05094,4.49753c-.01621-.00354-.03423-.00748-.05227-.01142-.01384-.18059-.03732-.36051-.02746-.54262.00321-.05948-.00273-.11949-.00477-.18936.10919.11852.1497.40283.08693.56569.03931.12242.06462.24978.054.38251-.0183-.06639-.03659-.13278-.05644-.2048Zm.12822,1.21422c-.01763-.01069-.0309-.01394-.03285-.02071-.01108-.03843-.02618-.07742-.02764-.11672-.00883-.23887-.01435-.47787-.02097-.71682.01803.00395.03606.00789.05227.01142.01984.07202.03813.13842.05644.20481.00953.19278.01906.38557.02886.58398-.01917.01848-.03881.0374-.0561.05404Z" fill="#8c4673"/>
  </g>
</svg>